<svg width="101" height="101" viewBox="0 0 101 101" fill="none" xmlns="http://www.w3.org/2000/svg">
<path d="M21.4528 43.4711C20.6715 43.5003 19.9319 43.8349 19.3894 44.4047C18.8469 44.9744 18.5437 45.7349 18.5437 46.5262C18.5437 47.3175 18.8469 48.078 19.3894 48.6478C19.9319 49.2175 20.6715 49.5522 21.4528 49.5813H51.6317C52.0375 49.5965 52.442 49.5287 52.8213 49.382C53.2005 49.2353 53.5467 49.0126 53.839 48.7275C54.1313 48.4423 54.3639 48.1004 54.5227 47.7221C54.6815 47.3439 54.7634 46.9372 54.7634 46.5262C54.7634 46.1153 54.6815 45.7085 54.5227 45.3303C54.3639 44.9521 54.1313 44.6102 53.839 44.325C53.5467 44.0398 53.2005 43.8172 52.8213 43.6705C52.442 43.5238 52.0375 43.456 51.6317 43.4711H21.4528ZM18.4365 58.7446C18.4365 57.9345 18.7542 57.1575 19.3197 56.5843C19.8852 56.0111 20.6524 55.6885 21.4528 55.6874H51.6317C52.0375 55.6723 52.442 55.7401 52.8213 55.8868C53.2005 56.0335 53.5467 56.2561 53.839 56.5413C54.1313 56.8265 54.3639 57.1684 54.5227 57.5466C54.6815 57.9248 54.7634 58.3316 54.7634 58.7425C54.7634 59.1535 54.6815 59.5602 54.5227 59.9384C54.3639 60.3166 54.1313 60.6586 53.839 60.9438C53.5467 61.229 53.2005 61.4516 52.8213 61.5983C52.442 61.745 52.0375 61.8128 51.6317 61.7977H21.4528C20.6528 61.7977 19.8856 61.476 19.3199 60.9034C18.7543 60.3309 18.4365 59.5543 18.4365 58.7446ZM18.4365 70.965C18.436 70.5638 18.5136 70.1663 18.6649 69.7954C18.8162 69.4246 19.0384 69.0875 19.3185 68.8035C19.5986 68.5196 19.9313 68.2943 20.2975 68.1406C20.6638 67.987 21.0563 67.9079 21.4528 67.9079H33.526C34.3072 67.937 35.0469 68.2717 35.5894 68.8414C36.1319 69.4112 36.435 70.1717 36.435 70.963C36.435 71.7543 36.1319 72.5148 35.5894 73.0845C35.0469 73.6543 34.3072 73.9889 33.526 74.0181H21.4528C20.6528 74.0181 19.8856 73.6964 19.3199 73.1239C18.7543 72.5513 18.4365 71.7748 18.4365 70.965Z" fill="#444444"/>
<path d="M12.3998 0.703735H45.5992L72.7578 28.1977V60.8232H66.7252V28.1977H54.652C53.4629 28.1977 52.2853 27.9605 51.1867 27.4998C50.0881 27.039 49.0899 26.3637 48.2492 25.5123C47.4085 24.661 46.7418 23.6504 46.2871 22.5382C45.8324 21.4259 45.5986 20.2339 45.5992 19.0303V6.81397L12.3998 6.82226C10.7995 6.82226 9.26476 7.46545 8.13279 8.61044C7.00083 9.75543 6.36434 11.3085 6.36325 12.9283V86.2386C6.36434 87.8588 7.00069 89.4123 8.13254 90.5579C9.26439 91.7036 10.7992 92.3477 12.3998 92.3488H60.6886C62.2893 92.3477 63.8241 91.7036 64.9559 90.5579C66.0878 89.4123 66.7241 87.8588 66.7252 86.2386V77.4416H72.7578V86.2386C72.7578 89.4785 71.4862 92.5858 69.2228 94.8768C66.9594 97.1678 63.8896 98.4549 60.6886 98.4549H12.3998C9.19854 98.4549 6.12829 97.1679 3.86424 94.8771C1.60019 92.5862 0.327749 89.4789 0.32666 86.2386V12.9283C0.326122 11.3232 0.637998 9.73364 1.24449 8.2505C1.85099 6.76737 2.74023 5.41969 3.86138 4.28448C4.98254 3.14926 6.31362 2.24875 7.77868 1.63436C9.24373 1.01996 10.814 0.703735 12.3998 0.703735Z" fill="#444444"/>
<path d="M95.8877 71.2846C96.3574 71.6868 96.7348 72.1877 96.9937 72.7526C97.2526 73.3174 97.3867 73.9326 97.3868 74.5552C97.3868 75.1778 97.2528 75.7929 96.994 76.3577C96.7352 76.9225 96.3579 77.4234 95.8883 77.8255L79.4147 91.933C76.6636 94.2889 72.449 92.3099 72.4478 88.6629L72.4475 85.097L59.6394 85.096C59.0835 85.0959 58.533 84.985 58.0195 84.7696C57.5059 84.5541 57.0393 84.2384 56.6462 83.8404C56.2532 83.4424 55.9415 82.97 55.7289 82.4501C55.5163 81.9301 55.4069 81.3729 55.4071 80.8102L55.4107 68.2942C55.4109 67.1585 55.8567 66.0694 56.65 65.2664C57.4434 64.4634 58.5193 64.0122 59.6414 64.012L72.4458 64.0093L72.4465 60.4425C72.4453 56.7955 76.6604 54.8162 79.4119 57.1726L95.8877 71.2846Z" fill="#B8D7CC"/>
<path d="M91.0752 71.1435L91.4879 70.7904C91.6189 70.6783 91.7242 70.5386 91.7964 70.381C91.8687 70.2235 91.9061 70.0519 91.9061 69.8781C91.9061 69.7044 91.8686 69.5328 91.7964 69.3752C91.7241 69.2176 91.6187 69.0778 91.4877 68.9657L91.4875 68.9655L74.5108 54.4266L74.5107 54.4265C73.7449 53.7702 72.5687 54.321 72.5678 55.3388L91.0752 71.1435ZM91.0752 71.1435L91.0763 71.1447L74.5143 85.3297L74.5142 85.3298C73.748 85.9863 72.5711 85.4351 72.5711 84.4169L72.5707 79.3844V79.3843C72.5705 78.8908 72.3768 78.4175 72.032 78.0685C71.6872 77.7195 71.2196 77.5234 70.7321 77.5233H70.732L56.1921 77.5221L56.1921 77.5221C56.037 77.5221 55.8835 77.4912 55.7403 77.4311C55.597 77.3711 55.4668 77.2831 55.3572 77.1721C55.2475 77.0611 55.1606 76.9293 55.1012 76.7843C55.0419 76.6394 55.0114 76.484 55.0114 76.3271C55.0114 76.3271 55.0114 76.327 55.0114 76.327L55.0142 63.429C55.0143 63.1123 55.1386 62.8087 55.3598 62.5848C55.581 62.3609 55.8809 62.2351 56.1938 62.235C56.1938 62.235 56.1938 62.235 56.1938 62.235L70.7308 62.2313H70.731C71.2182 62.231 71.6853 62.0349 72.0297 61.6863C72.3742 61.3376 72.5678 60.8648 72.5682 60.3718V60.3713L72.5678 55.3392L91.0752 71.1435ZM68.892 84.4167L68.892 84.4169C68.8933 88.6029 73.731 90.8747 76.889 88.1704L93.8643 73.6332C94.4033 73.1717 94.8365 72.5967 95.1335 71.9484C95.4306 71.3 95.5845 70.5939 95.5844 69.8792C95.5844 69.1645 95.4304 68.4584 95.1332 67.8101C94.8361 67.1617 94.4029 66.5867 93.8638 66.1251C93.8638 66.1251 93.8638 66.1251 93.8638 66.1251L76.8862 51.5833L76.8862 51.5833C73.7281 48.8787 68.8894 51.1502 68.8906 55.3367C68.8906 55.3367 68.8906 55.3368 68.8906 55.3369L68.89 58.5093L56.1924 58.5119C54.9044 58.5122 53.6693 59.0301 52.7586 59.9519C51.8479 60.8737 51.3362 62.1239 51.336 63.4276L51.3323 76.3247C51.3321 76.9706 51.4576 77.6102 51.7016 78.207C51.9457 78.8038 52.3035 79.3461 52.7546 79.8029C53.2058 80.2598 53.7414 80.6222 54.3309 80.8695C54.9204 81.1167 55.5522 81.2441 56.1903 81.2442L56.1904 80.7707L56.1904 81.2442L68.8917 81.2452L68.892 84.4167Z" fill="#444444" stroke="#444444"/>
</svg>
