<svg width="101" height="100" viewBox="0 0 101 100" fill="none" xmlns="http://www.w3.org/2000/svg">
<path d="M21.8799 43.7513C21.0709 43.7811 20.305 44.1235 19.7433 44.7063C19.1815 45.2892 18.8676 46.0672 18.8676 46.8767C18.8676 47.6862 19.1815 48.4642 19.7433 49.047C20.305 49.6299 21.0709 49.9723 21.8799 50.0021H53.1296C53.5497 50.0176 53.9687 49.9482 54.3614 49.7981C54.7541 49.6481 55.1125 49.4203 55.4152 49.1286C55.7179 48.8368 55.9587 48.487 56.1232 48.1001C56.2876 47.7132 56.3724 47.2971 56.3724 46.8767C56.3724 46.4563 56.2876 46.0402 56.1232 45.6533C55.9587 45.2663 55.7179 44.9165 55.4152 44.6248C55.1125 44.333 54.7541 44.1053 54.3614 43.9552C53.9687 43.8051 53.5497 43.7358 53.1296 43.7513H21.8799ZM18.7566 59.3889C18.7566 58.5602 19.0855 57.7653 19.6711 57.1789C20.2568 56.5925 21.0511 56.2625 21.8799 56.2614H53.1296C53.5497 56.2459 53.9687 56.3153 54.3614 56.4653C54.7541 56.6154 55.1125 56.8432 55.4152 57.1349C55.7179 57.4267 55.9587 57.7765 56.1232 58.1634C56.2876 58.5503 56.3724 58.9664 56.3724 59.3868C56.3724 59.8072 56.2876 60.2233 56.1232 60.6102C55.9587 60.9971 55.7179 61.3469 55.4152 61.6386C55.1125 61.9304 54.7541 62.1581 54.3614 62.3082C53.9687 62.4583 53.5497 62.5277 53.1296 62.5122H21.8799C21.4697 62.5122 21.0636 62.4314 20.6847 62.2744C20.3057 62.1175 19.9614 61.8874 19.6714 61.5974C19.3814 61.3074 19.1513 60.9631 18.9943 60.5841C18.8374 60.2052 18.7566 59.7991 18.7566 59.3889ZM18.7566 71.8905C18.7561 71.48 18.8364 71.0734 18.9931 70.694C19.1498 70.3145 19.3798 69.9697 19.6699 69.6793C19.96 69.3888 20.3045 69.1584 20.6837 69.0011C21.0629 68.8439 21.4694 68.763 21.8799 68.763H34.3815C35.1904 68.7928 35.9563 69.1351 36.5181 69.718C37.0799 70.3009 37.3937 71.0789 37.3937 71.8884C37.3937 72.6979 37.0799 73.4758 36.5181 74.0587C35.9563 74.6416 35.1904 74.9839 34.3815 75.0138H21.8799C21.4687 75.0138 21.0615 74.9325 20.6817 74.7748C20.3019 74.617 19.9571 74.3859 19.6669 74.0945C19.3767 73.8031 19.1469 73.4573 18.9907 73.0769C18.8345 72.6965 18.7549 72.289 18.7566 71.8777V71.8905Z" fill="#444444"/>
<path d="M75.0053 42.3363V28.1265L46.8788 0H12.5016C9.18669 -1.91494e-07 6.00751 1.31655 3.66313 3.66014C1.31875 6.00372 0.00112675 9.18246 0 12.4974V87.5026C0.00112675 90.8175 1.31875 93.9963 3.66313 96.3399C6.00751 98.6834 9.18669 100 12.5016 100H62.508C65.8225 100 69.0012 98.6833 71.3449 96.3396C73.6886 93.9959 75.0053 90.8171 75.0053 87.5026V71.7406L68.7587 78.1699V87.5026C68.7576 89.1601 68.0987 90.7494 66.9267 91.9214C65.7547 93.0934 64.1654 93.7523 62.508 93.7534H12.5058C11.685 93.7534 10.8721 93.5917 10.1138 93.2776C9.35538 92.9635 8.66631 92.5031 8.08587 91.9226C7.50543 91.3422 7.045 90.6531 6.73087 89.8947C6.41673 89.1363 6.25504 88.3235 6.25504 87.5026V12.4974C6.25504 11.6767 6.41676 10.864 6.73094 10.1059C7.04513 9.34776 7.50563 8.65895 8.08612 8.07885C8.66662 7.49875 9.35574 7.03871 10.1141 6.72504C10.8725 6.41138 11.6852 6.25022 12.5058 6.25078H46.8788V18.7481C46.8783 19.9795 47.1203 21.1989 47.5912 22.3367C48.062 23.4745 48.7524 24.5084 49.6229 25.3793C50.4935 26.2503 51.527 26.9412 52.6646 27.4125C53.8022 27.8839 55.0215 28.1265 56.2529 28.1265H68.7545V48.3406L75.0053 42.3363Z" fill="#444444"/>
<path d="M70.5042 41.8671C58.1825 41.8671 48.1917 51.8579 48.1917 64.1796C48.1917 76.5012 58.1825 86.4921 70.5042 86.4921C82.8258 86.4921 92.8167 76.5012 92.8167 64.1796C92.8167 51.8579 82.8258 41.8671 70.5042 41.8671ZM70.5042 82.7069C60.2743 82.7069 51.9768 74.4094 51.9768 64.1796C51.9768 53.9497 60.2743 45.6522 70.5042 45.6522C80.734 45.6522 89.0315 53.9497 89.0315 64.1796C89.0315 74.4094 80.734 82.7069 70.5042 82.7069Z" fill="#444444" stroke="#444444" stroke-width="2"/>
<path d="M70.5042 45.6522C60.2743 45.6522 51.9768 53.9497 51.9768 64.1796C51.9768 74.4094 60.2743 82.7069 70.5042 82.7069C80.734 82.7069 89.0315 74.4094 89.0315 64.1796C89.0315 53.9497 80.734 45.6522 70.5042 45.6522ZM80.0667 65.3749C80.0667 65.594 79.8874 65.7733 79.6682 65.7733H72.0979V73.3436C72.0979 73.5628 71.9186 73.7421 71.6995 73.7421H69.3088C69.0897 73.7421 68.9104 73.5628 68.9104 73.3436V65.7733H61.3401C61.1209 65.7733 60.9417 65.594 60.9417 65.3749V62.9843C60.9417 62.7651 61.1209 62.5858 61.3401 62.5858H68.9104V55.0155C68.9104 54.7964 69.0897 54.6171 69.3088 54.6171H71.6995C71.9186 54.6171 72.0979 54.7964 72.0979 55.0155V62.5858H79.6682C79.8874 62.5858 80.0667 62.7651 80.0667 62.9843V65.3749Z" fill="#B8D7CC"/>
<path d="M79.6682 62.5858H72.0979V55.0155C72.0979 54.7964 71.9186 54.6171 71.6995 54.6171H69.3088C69.0897 54.6171 68.9104 54.7964 68.9104 55.0155V62.5858H61.3401C61.1209 62.5858 60.9417 62.7651 60.9417 62.9843V65.3749C60.9417 65.594 61.1209 65.7733 61.3401 65.7733H68.9104V73.3436C68.9104 73.5628 69.0897 73.7421 69.3088 73.7421H71.6995C71.9186 73.7421 72.0979 73.5628 72.0979 73.3436V65.7733H79.6682C79.8874 65.7733 80.0667 65.594 80.0667 65.3749V62.9843C80.0667 62.7651 79.8874 62.5858 79.6682 62.5858Z" fill="#373F41" stroke="#373F41" stroke-width="2"/>
</svg>
