<svg width="100" height="100" viewBox="0 0 100 100" fill="none" xmlns="http://www.w3.org/2000/svg">
<path d="M21.5958 43.7495C20.7971 43.7793 20.0411 44.1216 19.4865 44.7045C18.9319 45.2873 18.622 46.0653 18.622 46.8748C18.622 47.6842 18.9319 48.4622 19.4865 49.045C20.0411 49.6279 20.7971 49.9702 21.5958 50H52.4457C52.8604 50.0155 53.274 49.9461 53.6617 49.7961C54.0494 49.646 54.4032 49.4183 54.702 49.1265C55.0008 48.8348 55.2385 48.485 55.4009 48.0981C55.5633 47.7112 55.647 47.2952 55.647 46.8748C55.647 46.4544 55.5633 46.0383 55.4009 45.6514C55.2385 45.2645 55.0008 44.9147 54.702 44.623C54.4032 44.3312 54.0494 44.1035 53.6617 43.9535C53.274 43.8034 52.8604 43.734 52.4457 43.7495H21.5958ZM18.5125 59.3737C18.5125 58.545 18.8371 57.7502 19.4153 57.1638C19.9934 56.5774 20.7776 56.2474 21.5958 56.2463H52.4457C52.8604 56.2308 53.274 56.3002 53.6617 56.4503C54.0494 56.6003 54.4032 56.8281 54.702 57.1198C55.0008 57.4115 55.2385 57.7613 55.4009 58.1482C55.5633 58.5351 55.647 58.9512 55.647 59.3716C55.647 59.792 55.5633 60.208 55.4009 60.5949C55.2385 60.9818 55.0008 61.3316 54.702 61.6234C54.4032 61.9151 54.0494 62.1428 53.6617 62.2929C53.274 62.443 52.8604 62.5123 52.4457 62.4968H21.5958C20.778 62.4968 19.9937 62.1678 19.4155 61.5821C18.8373 60.9964 18.5125 60.202 18.5125 59.3737ZM18.5125 71.8747C18.5119 71.4642 18.5912 71.0577 18.7459 70.6783C18.9006 70.2989 19.1277 69.9541 19.414 69.6636C19.7004 69.3732 20.0405 69.1427 20.4148 68.9855C20.7892 68.8283 21.1905 68.7474 21.5958 68.7474H33.9374C34.736 68.7772 35.4921 69.1195 36.0467 69.7024C36.6013 70.2852 36.9111 71.0632 36.9111 71.8726C36.9111 72.6821 36.6013 73.4601 36.0467 74.0429C35.4921 74.6257 34.736 74.9681 33.9374 74.9979H21.5958C20.778 74.9979 19.9937 74.6689 19.4155 74.0831C18.8373 73.4974 18.5125 72.703 18.5125 71.8747Z" fill="#444444"/>
<path d="M46.279 0H12.3416C10.7205 -9.48556e-08 9.11532 0.323489 7.61769 0.951992C6.12006 1.58049 4.75939 2.50168 3.61331 3.66297C2.46723 4.82425 1.55822 6.20287 0.938239 7.72006C0.31826 9.23725 -0.0005503 10.8633 7.13033e-07 12.5053V87.4989C0.00111304 90.8137 1.30184 93.9923 3.61623 96.3358C5.93061 98.6793 9.06913 99.9958 12.3416 99.9958H61.704C64.9761 99.9958 68.1142 98.6791 70.4279 96.3355C72.7416 93.9919 74.0414 90.8133 74.0414 87.4989V28.1253L46.279 0ZM46.279 6.25054V18.7473C46.2785 19.9787 46.5175 21.198 46.9823 22.3358C47.4471 23.4736 48.1286 24.5074 48.988 25.3783C49.8474 26.2491 50.8678 26.94 51.9908 27.4113C53.1138 27.8827 54.3176 28.1253 55.5332 28.1253H67.8748V87.4989C67.8737 89.1563 67.2232 90.7455 66.0662 91.9175C64.9092 93.0895 63.3402 93.7484 61.704 93.7495H12.3416C10.7053 93.7484 9.13644 93.0895 7.97943 91.9175C6.82242 90.7455 6.17192 89.1563 6.1708 87.4989V12.5053C6.17192 10.8483 6.82255 9.25954 7.97969 8.08826C9.13682 6.91698 10.7057 6.25902 12.3416 6.25902L46.279 6.25054Z" fill="#444444"/>
<ellipse cx="70.0945" cy="61" rx="22.7067" ry="23" fill="#B8D7CC"/>
<path d="M97.9799 87.0703L83.91 72.8186H83.8848C87.3686 67.7526 88.8532 61.5489 88.046 55.4294C87.2388 49.31 84.1985 43.7186 79.5239 39.7567C74.8493 35.7948 68.8795 33.7498 62.7905 34.0245C56.7014 34.2991 50.9347 36.8736 46.6263 41.2406C42.3179 45.6077 39.7802 51.4508 39.5133 57.6187C39.2463 63.7866 41.2694 69.8321 45.184 74.5643C49.0986 79.2965 54.6208 82.3723 60.6628 83.1856C66.7047 83.999 72.8284 82.4909 77.8273 78.9586V78.9586L91.8972 93.2146C92.295 93.6189 92.7677 93.9397 93.2882 94.1584C93.8087 94.3772 94.3667 94.4896 94.9302 94.4893V94.4893C95.7777 94.4891 96.6061 94.2344 97.3107 93.7575C98.0154 93.2805 98.5647 92.6028 98.8893 91.8098C99.2138 91.0168 99.2991 90.1441 99.1342 89.3021C98.9694 88.46 98.5619 87.6864 97.9632 87.0788L97.9799 87.0703ZM83.352 58.6688C83.352 62.57 82.21 66.3836 80.0703 69.6273C77.9305 72.871 74.8892 75.3991 71.331 76.892C67.7727 78.3849 63.8573 78.7756 60.0799 78.0145C56.3025 77.2534 52.8327 75.3748 50.1094 72.6163C47.386 69.8577 45.5314 66.3431 44.78 62.5169C44.0286 58.6907 44.4143 54.7248 45.8882 51.1205C47.362 47.5163 49.8579 44.4358 53.0603 42.2684C56.2626 40.101 60.0275 38.9442 63.879 38.9442C69.0418 38.9498 73.9916 41.0297 77.6424 44.7276C81.2931 48.4255 83.3465 53.4393 83.352 58.6688V58.6688Z" fill="#444444"/>
</svg>
