<svg width="101" height="101" viewBox="0 0 101 101" fill="none" xmlns="http://www.w3.org/2000/svg">
<path d="M21.4528 43.4711C20.6715 43.5003 19.9319 43.8349 19.3894 44.4047C18.8469 44.9744 18.5437 45.7349 18.5437 46.5262C18.5437 47.3175 18.8469 48.078 19.3894 48.6478C19.9319 49.2175 20.6715 49.5522 21.4528 49.5813H51.6317C52.0375 49.5965 52.442 49.5287 52.8213 49.382C53.2005 49.2353 53.5467 49.0126 53.839 48.7275C54.1313 48.4423 54.3639 48.1004 54.5227 47.7221C54.6815 47.3439 54.7634 46.9372 54.7634 46.5262C54.7634 46.1153 54.6815 45.7085 54.5227 45.3303C54.3639 44.9521 54.1313 44.6102 53.839 44.325C53.5467 44.0398 53.2005 43.8172 52.8213 43.6705C52.442 43.5238 52.0375 43.456 51.6317 43.4711H21.4528ZM18.4365 58.7446C18.4365 57.9345 18.7542 57.1575 19.3197 56.5843C19.8852 56.0111 20.6524 55.6885 21.4528 55.6874H51.6317C52.0375 55.6723 52.442 55.7401 52.8213 55.8868C53.2005 56.0335 53.5467 56.2561 53.839 56.5413C54.1313 56.8265 54.3639 57.1684 54.5227 57.5466C54.6815 57.9248 54.7634 58.3316 54.7634 58.7425C54.7634 59.1535 54.6815 59.5602 54.5227 59.9384C54.3639 60.3166 54.1313 60.6586 53.839 60.9438C53.5467 61.229 53.2005 61.4516 52.8213 61.5983C52.442 61.745 52.0375 61.8128 51.6317 61.7976H21.4528C20.6528 61.7976 19.8856 61.476 19.3199 60.9034C18.7543 60.3309 18.4365 59.5543 18.4365 58.7446ZM18.4365 70.965C18.436 70.5638 18.5136 70.1663 18.6649 69.7954C18.8162 69.4246 19.0384 69.0875 19.3185 68.8035C19.5986 68.5196 19.9313 68.2943 20.2975 68.1406C20.6638 67.987 21.0563 67.9079 21.4528 67.9079H33.526C34.3072 67.937 35.0469 68.2717 35.5894 68.8414C36.1319 69.4112 36.435 70.1717 36.435 70.963C36.435 71.7543 36.1319 72.5148 35.5894 73.0845C35.0469 73.6543 34.3072 73.9889 33.526 74.0181H21.4528C20.6528 74.0181 19.8856 73.6964 19.3199 73.1239C18.7543 72.5513 18.4365 71.7748 18.4365 70.965Z" fill="#444444"/>
<path d="M12.3998 0.703735H45.5992L72.7578 28.1977V60.8232H66.7252V28.1977H54.652C53.4629 28.1977 52.2853 27.9605 51.1867 27.4998C50.0881 27.039 49.0899 26.3637 48.2492 25.5123C47.4085 24.661 46.7418 23.6504 46.2871 22.5382C45.8324 21.4259 45.5986 20.2339 45.5992 19.0303V6.81397L12.3998 6.82226C10.7995 6.82226 9.26476 7.46545 8.13279 8.61044C7.00083 9.75543 6.36434 11.3085 6.36325 12.9283V86.2386C6.36434 87.8588 7.00069 89.4123 8.13254 90.5579C9.26439 91.7036 10.7992 92.3477 12.3998 92.3488H60.6886C62.2893 92.3477 63.8241 91.7036 64.9559 90.5579C66.0878 89.4123 66.7241 87.8588 66.7252 86.2386V77.4416H72.7578V86.2386C72.7578 89.4785 71.4862 92.5858 69.2228 94.8768C66.9594 97.1678 63.8896 98.4549 60.6886 98.4549H12.3998C9.19854 98.4549 6.12829 97.1679 3.86424 94.8771C1.60019 92.5862 0.327749 89.4789 0.32666 86.2386V12.9283C0.326122 11.3232 0.637998 9.73364 1.24449 8.2505C1.85099 6.76737 2.74023 5.41969 3.86138 4.28448C4.98254 3.14926 6.31362 2.24875 7.77868 1.63436C9.24373 1.01996 10.814 0.703735 12.3998 0.703735Z" fill="#444444"/>
<path d="M54.3142 46.6515C51.1675 46.6515 48.615 49.4345 48.615 52.8679V77.7236C48.615 81.1545 51.1675 83.9376 54.3142 83.9376H81.6195C82.3694 83.9351 83.091 84.262 83.6333 84.8499L91.7567 93.7159C92.0288 94.0096 92.3902 94.1729 92.7657 94.1721C93.1361 94.1799 93.4942 94.0204 93.7611 93.7288C94.0281 93.4372 94.1821 93.0372 94.1894 92.6167V52.8679C94.1894 49.4345 91.6391 46.6515 88.4924 46.6515H54.3142Z" fill="#E5E5E5"/>
<path d="M54.3142 46.6515C51.1675 46.6515 48.615 49.4345 48.615 52.8679V77.7236C48.615 81.1545 51.1675 83.9376 54.3142 83.9376H81.6195C82.3694 83.9351 83.091 84.262 83.6333 84.8499L91.7567 93.7159C92.0288 94.0096 92.3902 94.1729 92.7657 94.1721C93.1361 94.1799 93.4942 94.0204 93.7611 93.7288C94.0281 93.4372 94.1821 93.0372 94.1894 92.6167V52.8679C94.1894 49.4345 91.6391 46.6515 88.4924 46.6515H54.3142Z" fill="#E5E5E5"/>
<path d="M57.3142 50.6515C54.1675 50.6515 51.615 53.4345 51.615 56.8679V81.7236C51.615 85.1545 54.1675 87.9376 57.3142 87.9376H84.6195C85.3694 87.9351 86.091 88.262 86.6333 88.8499L94.7567 97.7159C95.0288 98.0096 95.3902 98.1729 95.7657 98.1721C96.1361 98.1799 96.4942 98.0204 96.7611 97.7288C97.0281 97.4372 97.1821 97.0372 97.1894 96.6167V56.8679C97.1894 53.4345 94.6391 50.6515 91.4924 50.6515H57.3142Z" fill="#B8D7CC"/>
<mask id="path-5-inside-1_2115_65501" fill="white">
<path d="M88.3208 49.1055C89.1145 49.1055 89.8757 49.4634 90.437 50.1004C90.9983 50.7375 91.3136 51.6015 91.3136 52.5024V91.7854L85.3279 84.9916C84.7732 84.362 84.1146 83.8627 83.3898 83.5221C82.665 83.1816 81.8882 83.0065 81.1038 83.0068H52.4581C51.6643 83.0068 50.9031 82.6489 50.3418 82.0119C49.7805 81.3748 49.4652 80.5108 49.4652 79.6099V52.4976C49.4652 51.5967 49.7805 50.7326 50.3418 50.0956C50.9031 49.4585 51.6643 49.1007 52.4581 49.1007L88.3208 49.1055ZM52.473 45.7086C50.8874 45.7118 49.3677 46.429 48.2474 47.7027C47.1272 48.9765 46.498 50.7027 46.498 52.5024V79.622C46.498 81.4218 47.1272 83.148 48.2474 84.4217C49.3677 85.6955 50.8874 86.4127 52.473 86.4159H81.1187C81.9107 86.4164 82.6702 86.7733 83.2308 87.4083L91.754 97.0822C91.9631 97.3187 92.2291 97.4796 92.5187 97.5448C92.8082 97.6101 93.1083 97.5766 93.3811 97.4488C93.6539 97.3209 93.8874 97.1043 94.052 96.8263C94.2167 96.5482 94.3052 96.221 94.3064 95.886V52.4976C94.3064 50.6957 93.6758 48.9677 92.5533 47.6936C91.4307 46.4195 89.9083 45.7037 88.3208 45.7037L52.473 45.7086Z"/>
</mask>
<path d="M88.3208 49.1055C89.1145 49.1055 89.8757 49.4634 90.437 50.1004C90.9983 50.7375 91.3136 51.6015 91.3136 52.5024V91.7854L85.3279 84.9916C84.7732 84.362 84.1146 83.8627 83.3898 83.5221C82.665 83.1816 81.8882 83.0065 81.1038 83.0068H52.4581C51.6643 83.0068 50.9031 82.6489 50.3418 82.0119C49.7805 81.3748 49.4652 80.5108 49.4652 79.6099V52.4976C49.4652 51.5967 49.7805 50.7326 50.3418 50.0956C50.9031 49.4585 51.6643 49.1007 52.4581 49.1007L88.3208 49.1055ZM52.473 45.7086C50.8874 45.7118 49.3677 46.429 48.2474 47.7027C47.1272 48.9765 46.498 50.7027 46.498 52.5024V79.622C46.498 81.4218 47.1272 83.148 48.2474 84.4217C49.3677 85.6955 50.8874 86.4127 52.473 86.4159H81.1187C81.9107 86.4164 82.6702 86.7733 83.2308 87.4083L91.754 97.0822C91.9631 97.3187 92.2291 97.4796 92.5187 97.5448C92.8082 97.6101 93.1083 97.5766 93.3811 97.4488C93.6539 97.3209 93.8874 97.1043 94.052 96.8263C94.2167 96.5482 94.3052 96.221 94.3064 95.886V52.4976C94.3064 50.6957 93.6758 48.9677 92.5533 47.6936C91.4307 46.4195 89.9083 45.7037 88.3208 45.7037L52.473 45.7086Z" fill="#444444"/>
<path d="M88.3208 49.1055L88.3201 54.1055H88.3208V49.1055ZM91.3136 91.7854L87.562 95.0908L96.3136 105.024V91.7854H91.3136ZM85.3279 84.9916L89.0796 81.6862L89.0795 81.6861L85.3279 84.9916ZM81.1038 83.0068V88.0068L81.106 88.0068L81.1038 83.0068ZM52.4581 83.0068V78.0068V83.0068ZM49.4652 52.4976H44.4652H49.4652ZM52.4581 49.1007L52.4587 44.1007H52.4581V49.1007ZM52.473 45.7086L52.4723 40.7086L52.4629 40.7086L52.473 45.7086ZM46.498 52.5024H51.498V52.5024L46.498 52.5024ZM46.498 79.622L51.498 79.622V79.622H46.498ZM52.473 86.4159L52.4629 91.4159H52.473V86.4159ZM81.1187 86.4159L81.1223 81.4159H81.1187V86.4159ZM83.2308 87.4083L86.9824 84.1029L86.9789 84.099L83.2308 87.4083ZM91.754 97.0822L88.0023 100.388L88.0087 100.395L91.754 97.0822ZM94.3064 95.886L99.3064 95.9045L99.3064 95.8953V95.886H94.3064ZM88.3208 45.7037V40.7037H88.3201L88.3208 45.7037ZM88.3208 54.1055C87.5693 54.1055 86.9985 53.7612 86.6854 53.4058L94.1886 46.7951C92.7529 45.1656 90.6597 44.1055 88.3208 44.1055V54.1055ZM86.6854 53.4058C86.3902 53.0708 86.3136 52.7376 86.3136 52.5024H96.3136C96.3136 50.4654 95.6063 48.4042 94.1886 46.7951L86.6854 53.4058ZM86.3136 52.5024V91.7854H96.3136V52.5024H86.3136ZM95.0652 88.4801L89.0796 81.6862L81.5763 88.2969L87.562 95.0908L95.0652 88.4801ZM89.0795 81.6861C88.0943 80.568 86.89 79.6423 85.5161 78.9968L81.2636 88.0475C81.3393 88.0831 81.4521 88.156 81.5764 88.297L89.0795 81.6861ZM85.5161 78.9968C84.1397 78.35 82.6374 78.0061 81.1015 78.0068L81.106 88.0068C81.139 88.0068 81.1904 88.0131 81.2636 88.0475L85.5161 78.9968ZM81.1038 78.0068H52.4581V88.0068H81.1038V78.0068ZM52.4581 78.0068C53.2095 78.0068 53.7802 78.351 54.0934 78.7065L46.5902 85.3172C48.0259 86.9468 50.1191 88.0068 52.4581 88.0068V78.0068ZM54.0934 78.7065C54.3887 79.0416 54.4652 79.3748 54.4652 79.6099H44.4652C44.4652 81.6468 45.1724 83.708 46.5902 85.3172L54.0934 78.7065ZM54.4652 79.6099V52.4976H44.4652V79.6099H54.4652ZM54.4652 52.4976C54.4652 52.7326 54.3887 53.0658 54.0934 53.4009L46.5902 46.7902C45.1724 48.3995 44.4652 50.4607 44.4652 52.4976L54.4652 52.4976ZM54.0934 53.4009C53.7802 53.7565 53.2094 54.1007 52.4581 54.1007V44.1007C50.1192 44.1007 48.0259 45.1606 46.5902 46.7902L54.0934 53.4009ZM52.4574 54.1007L88.3201 54.1055L88.3214 44.1055L52.4587 44.1007L52.4574 54.1007ZM52.4629 40.7086C49.334 40.7149 46.4854 42.1352 44.4929 44.4007L52.002 51.0048C52.1284 50.861 52.2428 50.7872 52.3196 50.751C52.3946 50.7156 52.4477 50.7086 52.4831 50.7086L52.4629 40.7086ZM44.4929 44.4007C42.5182 46.646 41.498 49.5679 41.498 52.5024L51.498 52.5024C51.498 51.8374 51.7362 51.307 52.002 51.0048L44.4929 44.4007ZM41.498 52.5024V79.622H51.498V52.5024H41.498ZM41.498 79.622C41.498 82.5565 42.5182 85.4784 44.4929 87.7237L52.002 81.1197C51.7362 80.8175 51.498 80.287 51.498 79.622L41.498 79.622ZM44.4929 87.7237C46.4854 89.9893 49.334 91.4095 52.4629 91.4159L52.4831 81.4159C52.4477 81.4158 52.3946 81.4088 52.3196 81.3735C52.2428 81.3372 52.1284 81.2634 52.002 81.1197L44.4929 87.7237ZM52.473 91.4159H81.1187V81.4159H52.473V91.4159ZM81.1151 91.4159C80.3655 91.4153 79.7958 91.0723 79.4826 90.7176L86.9789 84.099C85.5445 82.4743 83.4559 81.4176 81.1223 81.4159L81.1151 91.4159ZM79.4792 90.7136L88.0023 100.388L95.5056 93.7769L86.9824 84.1029L79.4792 90.7136ZM88.0087 100.395C88.8668 101.365 90.0388 102.111 91.4198 102.423L93.6175 92.6671C94.4195 92.8478 95.0593 93.2723 95.4992 93.7696L88.0087 100.395ZM91.4198 102.423C92.8097 102.736 94.2417 102.567 95.5029 101.976L91.2593 92.9213C91.9749 92.586 92.8067 92.4844 93.6175 92.6671L91.4198 102.423ZM95.5029 101.976C96.7518 101.391 97.7172 100.45 98.3544 99.3737L89.7496 94.2788C90.0576 93.7587 90.5561 93.2509 91.2593 92.9213L95.5029 101.976ZM98.3544 99.3737C98.9896 98.3009 99.302 97.0955 99.3064 95.9045L89.3065 95.8675C89.3084 95.3466 89.4437 94.7954 89.7496 94.2788L98.3544 99.3737ZM99.3064 95.886V52.4976H89.3064V95.886H99.3064ZM99.3064 52.4976C99.3064 49.5597 98.2839 46.6345 96.3049 44.3883L88.8016 50.9989C89.0677 51.3009 89.3064 51.8318 89.3064 52.4976H99.3064ZM96.3049 44.3883C94.3079 42.1216 91.4534 40.7037 88.3208 40.7037V50.7037C88.3563 50.7037 88.4093 50.7106 88.484 50.7458C88.5607 50.7818 88.6751 50.8554 88.8016 50.9989L96.3049 44.3883ZM88.3201 40.7037L52.4723 40.7086L52.4737 50.7086L88.3214 50.7037L88.3201 40.7037Z" fill="#444444" mask="url(#path-5-inside-1_2115_65501)"/>
<path d="M53.9097 56.6185C53.9097 56.1213 54.0837 55.6443 54.3935 55.2927C54.7033 54.9411 55.1235 54.7435 55.5616 54.7435H85.2427C85.6809 54.7435 86.1011 54.9411 86.4109 55.2927C86.7207 55.6443 86.8947 56.1213 86.8947 56.6185C86.8947 57.1158 86.7207 57.5927 86.4109 57.9444C86.1011 58.296 85.6809 58.4936 85.2427 58.4936H55.5593C55.1216 58.4928 54.702 58.295 54.3927 57.9434C54.0834 57.5919 53.9097 57.1154 53.9097 56.6185ZM53.9097 65.9748C53.9097 65.4776 54.0837 65.0006 54.3935 64.649C54.7033 64.2974 55.1235 64.0998 55.5616 64.0998H85.2427C85.6809 64.0998 86.1011 64.2974 86.4109 64.649C86.7207 65.0006 86.8947 65.4776 86.8947 65.9748C86.8947 66.4721 86.7207 66.9491 86.4109 67.3007C86.1011 67.6523 85.6809 67.8499 85.2427 67.8499H55.5593C55.3422 67.8495 55.1272 67.8006 54.9267 67.7059C54.7263 67.6111 54.5442 67.4725 54.391 67.2978C54.2378 67.1232 54.1165 66.916 54.0339 66.688C53.9513 66.4601 53.9091 66.2159 53.9097 65.9695V65.9748ZM53.9097 75.3338C53.9097 74.8366 54.0837 74.3596 54.3935 74.008C54.7033 73.6564 55.1235 73.4588 55.5616 73.4588H72.0506C72.4888 73.4588 72.9089 73.6564 73.2187 74.008C73.5285 74.3596 73.7026 74.8366 73.7026 75.3338C73.7026 75.8311 73.5285 76.308 73.2187 76.6597C72.9089 77.0113 72.4888 77.2088 72.0506 77.2088H55.5616C55.3443 77.2089 55.1291 77.1602 54.9284 77.0656C54.7276 76.9711 54.5453 76.8325 54.3919 76.6578C54.2384 76.4831 54.1168 76.2758 54.0341 76.0477C53.9513 75.8196 53.9091 75.5752 53.9097 75.3285V75.3338Z" fill="#444444"/>
</svg>
